<?xml version="1.0" encoding="UTF-8"?>
<svg viewBox="0 0 30 29" version="1.1" xmlns="http://www.w3.org/2000/svg" xmlns:xlink="http://www.w3.org/1999/xlink">
    <defs>
        <rect id="path-1" x="0" y="0" width="336" height="395"></rect>
    </defs>
    <g stroke="none" stroke-width="1" fill="none" fill-rule="evenodd">
        <g id="Sessions-Detail---Vote" transform="translate(-305.000000, -188.000000)">
            <g id="Group-5" transform="translate(0.000000, 24.000000)" fill="#720F29" fill-opacity="0.1">
                <rect id="Rectangle-Copy" x="0" y="156" width="360" height="540"></rect>
            </g>
            <rect id="Rectangle" fill="currentColor" opacity="0.65" x="0" y="24" width="360" height="696"></rect>
            <g id="Group-9" transform="translate(12.000000, 163.000000)">
                <g id="Rectangle">
                    <use fill="black" fill-opacity="1" filter="url(#filter-2)" xlink:href="#path-1"></use>
                    <use fill="#FFFFFF" fill-rule="evenodd" xlink:href="#path-1"></use>
                </g>
                <path d="M308,54 C309.958333,54 311.802083,53.625 313.53125,52.875 C315.260417,52.125 316.770833,51.109375 318.0625,49.828125 C319.354167,48.546875 320.369792,47.0416667 321.109375,45.3125 C321.848958,43.5833333 322.21875,41.7395833 322.21875,39.78125 C322.21875,37.8229167 321.848958,35.9791667 321.109375,34.25 C320.369792,32.5208333 319.354167,31.0104167 318.0625,29.71875 C316.770833,28.4270833 315.260417,27.4114583 313.53125,26.671875 C311.802083,25.9322917 309.958333,25.5625 308,25.5625 C306.041667,25.5625 304.197917,25.9322917 302.46875,26.671875 C300.739583,27.4114583 299.229167,28.4270833 297.9375,29.71875 C296.645833,31.0104167 295.630208,32.5208333 294.890625,34.25 C294.151042,35.9791667 293.78125,37.8229167 293.78125,39.78125 C293.78125,41.7395833 294.151042,43.5833333 294.890625,45.3125 C295.630208,47.0416667 296.645833,48.546875 297.9375,49.828125 C299.229167,51.109375 300.739583,52.125 302.46875,52.875 C304.197917,53.625 306.041667,54 308,54 Z M308,52.21875 C306.291667,52.21875 304.682292,51.890625 303.171875,51.234375 C301.661458,50.578125 300.338542,49.6875 299.203125,48.5625 C298.067708,47.4375 297.177083,46.1197917 296.53125,44.609375 C295.885417,43.0989583 295.5625,41.4895833 295.5625,39.78125 C295.5625,38.0729167 295.885417,36.4635417 296.53125,34.953125 C297.177083,33.4427083 298.067708,32.1197917 299.203125,30.984375 C300.338542,29.8489583 301.661458,28.9583333 303.171875,28.3125 C304.682292,27.6666667 306.291667,27.34375 308,27.34375 C309.708333,27.34375 311.317708,27.6666667 312.828125,28.3125 C314.338542,28.9583333 315.65625,29.8541667 316.78125,31 C317.927083,32.125 318.822917,33.4427083 319.46875,34.953125 C320.114583,36.4635417 320.4375,38.0729167 320.4375,39.78125 C320.4375,41.4895833 320.114583,43.0989583 319.46875,44.609375 C318.822917,46.1197917 317.932292,47.4375 316.796875,48.5625 C315.661458,49.6875 314.338542,50.578125 312.828125,51.234375 C311.317708,51.890625 309.708333,52.21875 308,52.21875 Z M314.125,46.875 C314.4375,46.875 314.682292,46.7916667 314.859375,46.625 C315.036458,46.4583333 315.125,46.25 315.125,46 C315.125,45.75 315.03125,45.5416667 314.84375,45.375 L314.84375,45.375 L309.25,39.78125 L314.84375,34.1875 C315.03125,34.0208333 315.125,33.8125 315.125,33.5625 C315.125,33.3125 315.036458,33.0989583 314.859375,32.921875 C314.682292,32.7447917 314.46875,32.65625 314.21875,32.65625 C313.96875,32.65625 313.760417,32.75 313.59375,32.9375 L313.59375,32.9375 L308,38.53125 L302.40625,32.9375 C302.239583,32.75 302.03125,32.65625 301.78125,32.65625 C301.53125,32.65625 301.317708,32.7447917 301.140625,32.921875 C300.963542,33.0989583 300.875,33.3125 300.875,33.5625 C300.875,33.8125 300.96875,34.0208333 301.15625,34.1875 L301.15625,34.1875 L306.75,39.78125 L301.15625,45.375 C300.96875,45.5416667 300.875,45.75 300.875,46 C300.875,46.2708333 300.9375,46.4583333 301.0625,46.5625 C301.291667,46.7708333 301.5,46.875 301.6875,46.875 C302,46.875 302.239583,46.7916667 302.40625,46.625 L302.40625,46.625 L308,41.03125 L313.59375,46.625 C313.760417,46.7916667 313.9375,46.875 314.125,46.875 Z" id="x" fill="#0E0E0E" fill-rule="nonzero"></path>
            </g>
        </g>
    </g>
</svg>