<svg viewBox="0 0 16 16" version="1.1" xmlns="http://www.w3.org/2000/svg" xmlns:xlink="http://www.w3.org/1999/xlink">
    <path stroke="currentColor" fill="none" d="M14.4357076,5.17784615 C14.3862307,5.02596923 14.2446922,4.92307692 14.084446,4.92307692 C14.084446,4.92307692 9.11435373,4.92307692 9.11435373,4.92307692 C9.11435373,4.92307692 7.57835373,0.254769231 7.57835373,0.254769231 C7.52887681,0.102892308 7.38684604,0 7.22709219,0 C7.06733835,0 6.92530758,0.102892308 6.87583065,0.254769231 C6.87583065,0.254769231 5.33983065,4.92307692 5.33983065,4.92307692 C5.33983065,4.92307692 0.369246039,4.92307692 0.369246039,4.92307692 C0.209246039,4.92307692 0.0674614235,5.02596923 0.0179845004,5.17784615 C-0.0312462688,5.33021538 0.0229075773,5.49661538 0.152138347,5.59089231 C0.152138347,5.59089231 4.17355373,8.57255385 4.17355373,8.57255385 C4.17355373,8.57255385 2.63755373,13.2999385 2.63755373,13.2999385 C2.58807681,13.4523077 2.64247681,13.6192 2.77170758,13.7129846 C2.9011845,13.8067692 3.07619989,13.8067692 3.20592296,13.7129846 C3.20592296,13.7129846 7.22684604,10.7913846 7.22684604,10.7913846 C7.22684604,10.7913846 11.2482614,13.7129846 11.2482614,13.7129846 C11.3129999,13.76 11.3890614,13.7836308 11.4653691,13.7836308 C11.5416768,13.7836308 11.6177383,13.76 11.6824768,13.7129846 C11.8117076,13.6192 11.8658614,13.4523077 11.8166307,13.2999385 C11.8166307,13.2999385 10.2808768,8.57255385 10.2808768,8.57255385 C10.2808768,8.57255385 14.3017999,5.59089231 14.3017999,5.59089231 C14.4310307,5.49661538 14.4849383,5.33021538 14.4357076,5.17784615 Z"></path>
</svg>