<svg viewBox="0 0 35 30" version="1.1" xmlns="http://www.w3.org/2000/svg" xmlns:xlink="http://www.w3.org/1999/xlink">
    <path fill="currentColor" d="M34.48001,8.40603 L34.48001,28.30636 C34.48001,28.88341 33.97717,29.52236 33.33067,29.36603 L23.56134,26.75357 L10.91867,29.39226 L1.14934,26.73259 C0.46664,26.55266 1e-05,25.92682 1e-05,24.67043 L1e-05,5.74899 C1e-05,5.17194 0.51549,4.63843 1.14934,4.75174 L7.52412,6.42938 C7.43332,6.91777 7.37528,7.41613 7.37528,7.92813 C7.37528,7.95646 7.37873,7.98479 7.37873,8.01311 L1.72344,6.49495 L1.72344,24.67043 C1.72344,24.93902 1.75735,25.13574 1.79355,25.26532 L10.34344,27.56093 L10.34344,14.52696 L11.49277,15.92289 L11.49277,27.6223 L22.9861,25.23804 L22.9861,15.89142 L24.13543,14.49549 L24.13543,25.24644 L32.75543,27.56093 L32.75543,8.80893 L27.04152,7.27503 C26.9944,6.68067 26.88349,6.10362 26.71511,5.54703 L33.3301,7.32329 C33.93522,7.49011 34.48001,7.82795 34.48001,8.40604 L34.48001,8.40603 Z M17.22678,1.04918 C13.06217,1.04918 9.67394,4.13482 9.67394,7.92813 C9.67394,9.34924 10.14574,10.71475 11.03762,11.87724 L17.22678,19.39514 L23.41594,11.87724 C24.3084,10.71475 24.77962,9.34924 24.77962,7.92813 C24.77962,4.13482 21.39139,1.04918 17.22678,1.04918 Z M17.22678,-1e-05 C22.03272,-1e-05 25.92896,3.54098 25.92896,7.92813 C25.92896,9.62833 25.34223,11.2021 24.34575,12.49416 L17.22678,21.1415 L10.10781,12.49363 C9.11191,11.20156 8.5246,9.62779 8.5246,7.9276 C8.52517,3.54098 12.42141,-1e-05 17.22678,-1e-05 L17.22678,-1e-05 Z M17.24057,5.26898 C15.81999,5.26898 14.66376,6.32393 14.66376,7.62124 C14.66376,8.91855 15.81941,9.97298 17.24057,9.97298 C18.66115,9.97298 19.8168,8.91803 19.8168,7.62124 C19.8168,6.32445 18.66115,5.26898 17.24057,5.26898 Z M17.24057,4.21089 C19.30362,4.21089 20.9759,5.73745 20.9759,7.62073 C20.9759,9.50401 19.30362,11.03057 17.24057,11.03057 C15.17752,11.03057 13.50524,9.50401 13.50524,7.62073 C13.50524,5.73798 15.17752,4.21089 17.24057,4.21089 Z"></path>
</svg>