<svg version="1.2" xmlns="http://www.w3.org/2000/svg" xmlns:xlink="http://www.w3.org/1999/xlink" overflow="visible" preserveAspectRatio="none" viewBox="0 0 20.67692307692306 14.400369230769229" width="20.67692307692306" height="14.400369230769229"><g transform="translate(0, 0)"><g transform="translate(0, 0) rotate(0)"><path style="stroke-width: 0px; stroke-linecap: butt; stroke-linejoin: miter; fill: rgb(255, 255, 255);" d="M20.67692,0v13.66191c0,0.40726 -0.3312,0.73846 -0.73846,0.73846h-19.2c-0.40726,0 -0.73846,-0.3312 -0.73846,-0.73846v-13.66191zM18.63655,1.10769h-16.59434l8.29735,6.05391zM19.56923,13.29268v-11.95163l-9.01218,6.576c-0.01145,0.00849 -0.02474,0.01182 -0.03692,0.01883c-0.01182,0.00665 -0.02289,0.01292 -0.03545,0.01809c-0.04689,0.02031 -0.09526,0.03397 -0.14474,0.03397h-0.00074c-0.04911,0 -0.09785,-0.01403 -0.14474,-0.03434c-0.01218,-0.00554 -0.02326,-0.01145 -0.03508,-0.01809c-0.01218,-0.00665 -0.02585,-0.01034 -0.03729,-0.01883l-9.0144,-6.57674v11.95274z" vector-effect="non-scaling-stroke"/></g><defs><path id="path-1577536688882159" d="M20.67692,0v13.66191c0,0.40726 -0.3312,0.73846 -0.73846,0.73846h-19.2c-0.40726,0 -0.73846,-0.3312 -0.73846,-0.73846v-13.66191zM18.63655,1.10769h-16.59434l8.29735,6.05391zM19.56923,13.29268v-11.95163l-9.01218,6.576c-0.01145,0.00849 -0.02474,0.01182 -0.03692,0.01883c-0.01182,0.00665 -0.02289,0.01292 -0.03545,0.01809c-0.04689,0.02031 -0.09526,0.03397 -0.14474,0.03397h-0.00074c-0.04911,0 -0.09785,-0.01403 -0.14474,-0.03434c-0.01218,-0.00554 -0.02326,-0.01145 -0.03508,-0.01809c-0.01218,-0.00665 -0.02585,-0.01034 -0.03729,-0.01883l-9.0144,-6.57674v11.95274z" vector-effect="non-scaling-stroke"/></defs><g style="transform: rotate(0deg) translate(-164.477px, -429.907px) translate(164.477px, 429.907px) rotate(0deg);"><defs><path id="path-157753668876267" d="M0 0 C0 0 0 13.661907692307693 0 13.661907692307693 C0 14.069169230769232 0.3312 14.40036923076923 0.7384615384615382 14.40036923076923 C0.7384615384615382 14.40036923076923 19.93846153846153 14.40036923076923 19.93846153846153 14.40036923076923 C20.345723076923072 14.40036923076923 20.67692307692307 14.069169230769232 20.67692307692307 13.661907692307693 C20.67692307692307 13.661907692307693 20.67692307692307 0 20.67692307692307 0 C20.67692307692307 0 0 0 0 0 Z" vector-effect="non-scaling-stroke"/></defs><g transform="translate(0, 0)" style="display: none;"><path style="stroke-width: 0px; stroke-linecap: butt; stroke-linejoin: miter; fill: rgba(0, 0, 0, 0); stroke: rgb(140, 140, 140);" d="M0 0 C0 0 0 13.661907692307693 0 13.661907692307693 C0 14.069169230769232 0.3312 14.40036923076923 0.7384615384615382 14.40036923076923 C0.7384615384615382 14.40036923076923 19.93846153846153 14.40036923076923 19.93846153846153 14.40036923076923 C20.345723076923072 14.40036923076923 20.67692307692307 14.069169230769232 20.67692307692307 13.661907692307693 C20.67692307692307 13.661907692307693 20.67692307692307 0 20.67692307692307 0 C20.67692307692307 0 0 0 0 0 Z" vector-effect="non-scaling-stroke"/></g></g><g style="transform: rotate(0deg) translate(-164.477px, -429.907px) translate(166.519px, 431.015px) rotate(0deg);"><defs><path id="path-157753668876165" d="M8.297353846153847 6.053907692307694 C8.297353846153847 6.053907692307694 0 0 0 0 C0 0 16.59433846153846 0 16.59433846153846 0 C16.59433846153846 0 8.297353846153847 6.053907692307694 8.297353846153847 6.053907692307694 Z" vector-effect="non-scaling-stroke"/></defs><g transform="translate(0, 0)" style="display: none;"><path style="stroke-width: 0px; stroke-linecap: butt; stroke-linejoin: miter; fill: rgba(0, 0, 0, 0); stroke: rgb(140, 140, 140);" d="M8.297353846153847 6.053907692307694 C8.297353846153847 6.053907692307694 0 0 0 0 C0 0 16.59433846153846 0 16.59433846153846 0 C16.59433846153846 0 8.297353846153847 6.053907692307694 8.297353846153847 6.053907692307694 Z" vector-effect="non-scaling-stroke"/></g></g><g style="transform: rotate(0deg) translate(-164.477px, -429.907px) translate(165.585px, 431.247px) rotate(0deg);"><defs><path id="path-157753668876163" d="M0 11.95273846153846 C0 11.95273846153846 0 0 0 0 C0 0 9.0144 6.57673846153846 9.0144 6.57673846153846 C9.025846153846153 6.58523076923077 9.039507692307692 6.588923076923077 9.051692307692306 6.595569230769231 C9.063507692307692 6.602215384615384 9.074584615384616 6.608123076923077 9.08676923076923 6.613661538461537 C9.133661538461537 6.63396923076923 9.1824 6.648000000000001 9.231507692307693 6.648000000000001 C9.231507692307693 6.648000000000001 9.231876923076921 6.648000000000001 9.231876923076921 6.648000000000001 C9.231876923076921 6.648000000000001 9.232246153846152 6.648000000000001 9.232246153846152 6.648000000000001 C9.281723076923075 6.648000000000001 9.330092307692306 6.634338461538463 9.376984615384615 6.61403076923077 C9.389538461538459 6.608861538461539 9.400615384615383 6.602584615384617 9.412430769230768 6.595938461538464 C9.424615384615382 6.58892307692308 9.437907692307691 6.585600000000001 9.449353846153844 6.577107692307693 C9.449353846153844 6.577107692307693 18.46153846153846 0.0011076923076923496 18.46153846153846 0.0011076923076923496 C18.46153846153846 0.0011076923076923496 18.46153846153846 11.95273846153846 18.46153846153846 11.95273846153846 C18.46153846153846 11.95273846153846 0 11.95273846153846 0 11.95273846153846 Z" vector-effect="non-scaling-stroke"/></defs><g transform="translate(0, 0)" style="display: none;"><path style="stroke-width: 0px; stroke-linecap: butt; stroke-linejoin: miter; fill: rgba(0, 0, 0, 0); stroke: rgb(140, 140, 140);" d="M0 11.95273846153846 C0 11.95273846153846 0 0 0 0 C0 0 9.0144 6.57673846153846 9.0144 6.57673846153846 C9.025846153846153 6.58523076923077 9.039507692307692 6.588923076923077 9.051692307692306 6.595569230769231 C9.063507692307692 6.602215384615384 9.074584615384616 6.608123076923077 9.08676923076923 6.613661538461537 C9.133661538461537 6.63396923076923 9.1824 6.648000000000001 9.231507692307693 6.648000000000001 C9.231507692307693 6.648000000000001 9.231876923076921 6.648000000000001 9.231876923076921 6.648000000000001 C9.231876923076921 6.648000000000001 9.232246153846152 6.648000000000001 9.232246153846152 6.648000000000001 C9.281723076923075 6.648000000000001 9.330092307692306 6.634338461538463 9.376984615384615 6.61403076923077 C9.389538461538459 6.608861538461539 9.400615384615383 6.602584615384617 9.412430769230768 6.595938461538464 C9.424615384615382 6.58892307692308 9.437907692307691 6.585600000000001 9.449353846153844 6.577107692307693 C9.449353846153844 6.577107692307693 18.46153846153846 0.0011076923076923496 18.46153846153846 0.0011076923076923496 C18.46153846153846 0.0011076923076923496 18.46153846153846 11.95273846153846 18.46153846153846 11.95273846153846 C18.46153846153846 11.95273846153846 0 11.95273846153846 0 11.95273846153846 Z" vector-effect="non-scaling-stroke"/></g></g></g></svg>