<svg viewBox="0 0 32 30" version="1.1" xmlns="http://www.w3.org/2000/svg" xmlns:xlink="http://www.w3.org/1999/xlink">
    <path fill="currentColor" d="M31.47541,8.40603 L31.47541,28.30636 C31.47541,28.88341 31.01639,29.52236 30.42623,29.36603 L21.5082,26.75357 L9.96722,29.39226 L1.04919,26.73259 C0.42598,26.55266 1e-05,25.92682 1e-05,24.67043 L1e-05,5.74899 C1e-05,5.17194 0.47057,4.63843 1.04919,4.75174 L6.86847,6.42938 C6.78558,6.91777 6.7326,7.41613 6.7326,7.92813 C6.7326,7.95646 6.73575,7.98479 6.73575,8.01311 L1.57326,6.49495 L1.57326,24.67043 C1.57326,24.93902 1.60421,25.13574 1.63726,25.26532 L9.44211,27.56093 L9.44211,14.52696 L10.49129,15.92289 L10.49129,27.6223 L20.98309,25.23804 L20.98309,15.89142 L22.03227,14.49549 L22.03227,25.24644 L29.90112,27.56093 L29.90112,8.80893 L24.68512,7.27503 C24.6421,6.68067 24.54086,6.10362 24.38715,5.54703 L30.42571,7.32329 C30.9781,7.49011 31.47541,7.82795 31.47541,8.40604 L31.47541,8.40603 Z M15.72564,1.04918 C11.92394,1.04918 8.83095,4.13482 8.83095,7.92813 C8.83095,9.34924 9.26164,10.71475 10.0758,11.87724 L15.72564,19.39514 L21.37548,11.87724 C22.19017,10.71475 22.62033,9.34924 22.62033,7.92813 C22.62033,4.13482 19.52735,1.04918 15.72564,1.04918 Z M15.72564,-1e-05 C20.11279,-1e-05 23.66951,3.54098 23.66951,7.92813 C23.66951,9.62833 23.1339,11.2021 22.22426,12.49416 L15.72564,21.1415 L9.22702,12.49363 C8.31791,11.20156 7.78177,9.62779 7.78177,7.9276 C7.78229,3.54098 11.33902,-1e-05 15.72564,-1e-05 L15.72564,-1e-05 Z M15.73823,5.26898 C14.44144,5.26898 13.38597,6.32393 13.38597,7.62124 C13.38597,8.91855 14.44092,9.97298 15.73823,9.97298 C17.03502,9.97298 18.08997,8.91803 18.08997,7.62124 C18.08997,6.32445 17.03502,5.26898 15.73823,5.26898 L15.73823,5.26898 Z M15.73823,4.21089 C17.62151,4.21089 19.14807,5.73745 19.14807,7.62073 C19.14807,9.50401 17.62151,11.03057 15.73823,11.03057 C13.85495,11.03057 12.32839,9.50401 12.32839,7.62073 C12.32839,5.73798 13.85495,4.21089 15.73823,4.21089 L15.73823,4.21089 Z"></path>
</svg>