<svg viewBox="0 0 17 21" version="1.1" xmlns="http://www.w3.org/2000/svg" xmlns:xlink="http://www.w3.org/1999/xlink">
    <path fill="currentColor" d="M4.43077,7.75385 L4.43077,5.16923 C4.43077,2.85378 6.17686,1.10769 8.49231,1.10769 C10.80776,1.10769 12.55385,2.85378 12.55385,5.16923 L12.55385,7.75385 L13.66154,7.75385 L13.66154,5.16923 C13.66154,2.25231 11.40923,0 8.49231,0 C5.57539,0 3.32308,2.25231 3.32308,5.16923 L3.32308,7.75385 L4.43077,7.75385 Z M15.87692,19.56923 L1.10769,19.56923 L1.10769,9.6 L15.87692,9.6 L15.87692,19.56923 Z M0.73846,8.49231 C0.33231,8.49231 0,8.82462 0,9.23077 L0,19.93846 C0,20.34461 0.33231,20.67692 0.73846,20.67692 L16.24615,20.67692 C16.6523,20.67692 16.98461,20.34461 16.98461,19.93846 L16.98461,9.23077 C16.98461,8.82462 16.6523,8.49231 16.24615,8.49231 L0.73846,8.49231 Z"></path>
</svg>