<svg viewBox="0 0 26 26" version="1.1" xmlns="http://www.w3.org/2000/svg" xmlns:xlink="http://www.w3.org/1999/xlink">
    <path fill="currentColor" d="M0,25.96056 L0,23.91716 C0,20.91971 2.42318,18.4904 5.41369,18.4904 L20.48674,18.4904 C23.47724,18.4904 25.90092,20.91971 25.90092,23.91716 L25.90092,25.96056 L24.40666,25.96056 L24.40666,23.91716 C24.40666,21.75045 22.64792,19.98813 20.48673,19.98813 L5.41368,19.98813 C3.25249,19.98813 1.49425,21.75045 1.49425,23.91716 L1.49425,25.96056 L0,25.96056 Z M6.97319,10.48407 L6.97319,6.00937 C6.97319,2.81722 9.62649,-8.8817842e-16 12.93826,-8.8817842e-16 C16.24953,-8.8817842e-16 18.93371,2.81722 18.93371,6.00937 L18.93371,10.48407 C18.93371,13.67722 16.24953,16.49344 12.93826,16.49344 C9.62649,16.49344 6.97319,13.67722 6.97319,10.48407 Z M8.46745,10.48407 C8.46745,12.92936 10.49864,14.99572 12.93826,14.99572 C15.37788,14.99572 17.43945,12.92936 17.43945,10.48407 L17.43945,6.00937 C17.43945,3.56408 15.37788,1.49772 12.93826,1.49772 C10.49814,1.49772 8.46745,3.56408 8.46745,6.00937 L8.46745,10.48407 Z"></path>
</svg>