<svg viewBox="0 0 13 12" version="1.1" xmlns="http://www.w3.org/2000/svg" xmlns:xlink="http://www.w3.org/1999/xlink">
<path fill="currentColor" d="M6.24666,7.11566 C7.84536,7.11566 9.14129,5.90046 9.14129,4.52308 L9.14129,2.59259 C9.14129,1.21542 7.84535,1e-05 6.24666,1e-05 C4.64772,1e-05 3.3667,1.21543 3.3667,2.59259 L3.3667,4.52308 C3.3667,5.90068 4.64773,7.11566 6.24666,7.11566 Z M9.89086,7.9772 L2.64526,7.9772 C1.20143,7.9772 4.4408921e-16,9.02526 4.4408921e-16,10.31843 L4.4408921e-16,11.2 L12.50485,11.2 L12.50485,10.31843 C12.50485,9.02526 11.33468,7.9772 9.89085,7.9772 L9.89086,7.9772 Z"></path>
</svg>