<svg viewBox="0 0 38 36" version="1.1" xmlns="http://www.w3.org/2000/svg" xmlns:xlink="http://www.w3.org/1999/xlink">
    <path fill="currentColor" d="M14.05837,35.32265 C13.80249,35.43637 13.53499,35.49065 13.272,35.49065 C12.52957,35.49065 11.82074,35.0616 11.4996,34.3392 L7.68277,25.75117 L11.92542,25.75117 L15.04247,32.76452 C15.47798,33.74215 15.03665,34.88778 14.05838,35.32264 L14.05837,35.32265 Z M33.60065,1.848 L33.60065,29.05108 C33.60065,30.22643 33.07274,30.9036 32.2728,30.9036 C31.8864,30.9036 31.43603,30.74529 30.95142,30.408 L25.07077,26.33723 C23.58462,25.30274 21,24.46338 19.19077,24.46338 L1.29231,24.46338 C0.58154,24.46338 3.99680289e-15,23.88184 3.99680289e-15,23.17107 L3.99680289e-15,8.95569 C3.99680289e-15,8.24492 0.58154,7.66338 1.29231,7.66338 L18.28616,7.66338 C20.03078,7.66338 22.68001,6.75876 24.10154,5.72492 L31.01539,0.55569 C31.50259,0.17898 31.95942,-3.33066907e-15 32.3497,-3.33066907e-15 C33.09795,-3.33066907e-15 33.60065,0.65908 33.60065,1.848 L33.60065,1.848 Z M17.4468,22.52492 L17.4468,9.60184 L1.93911,9.60184 L1.93911,22.52492 L17.4468,22.52492 Z M25.26268,7.27698 C23.58268,8.49886 20.8236,9.45129 18.73911,9.57664 L18.73911,22.52492 L19.19142,22.52492 C21.35474,22.52492 24.35871,23.48058 26.17828,24.7464 L31.66154,28.54191 L31.66154,2.49335 L25.26268,7.27698 Z M37.6068,15.99942 C37.6068,18.07939 36.5232,19.90348 34.89295,20.94831 L34.89295,11.04923 C36.5232,12.09406 37.6068,13.91945 37.6068,15.99941 L37.6068,15.99942 Z"></path>
</svg>