<svg viewBox="0 0 30 37" version="1.1" xmlns="http://www.w3.org/2000/svg" xmlns:xlink="http://www.w3.org/1999/xlink">
    <path fill="currentColor" d="M8.29791,18.28551 C7.90634,18.88643 7.39976,19.18754 6.77686,19.18754 C6.10357,19.18754 5.55886,18.91422 5.14274,18.36692 C4.74342,17.84483 4.54311,17.16766 4.54311,16.33477 C4.54311,15.51415 4.74342,14.82794 5.14274,14.27742 C5.60926,13.63837 6.22311,13.31853 6.98492,13.31853 C7.79714,13.31853 8.41938,13.66551 8.85295,14.35948 C9.33692,15.1297 9.57858,16.23591 9.57858,17.67877 C9.57858,19.06219 9.35953,20.16259 8.92209,20.97868 C8.45104,21.85745 7.76095,22.29748 6.85246,22.29748 C6.37301,22.29748 5.95237,22.16308 5.59052,21.89363 C5.07747,21.50271 4.78089,20.90501 4.70077,20.10185 L5.96271,20.10185 C6.06803,20.82554 6.38982,21.18739 6.92806,21.18739 C7.73123,21.18739 8.18806,20.2201 8.29791,18.28551 L8.29791,18.28551 Z M8.15835,16.28437 C8.15835,15.80492 8.06982,15.39914 7.89342,15.06637 C7.68342,14.67545 7.38684,14.47966 7.00367,14.47966 C6.62955,14.47966 6.3433,14.66704 6.14558,15.04117 C5.9737,15.37394 5.88712,15.77132 5.88712,16.23397 C5.88712,16.71794 5.97306,17.13212 6.14558,17.47717 C6.34266,17.87649 6.63536,18.0768 7.02241,18.0768 C7.42238,18.0768 7.7209,17.87068 7.91863,17.45843 C8.07823,17.13018 8.15835,16.73861 8.15835,16.28437 L8.15835,16.28437 Z M10.96006,20.5632 L12.51212,20.5632 L12.51212,22.11526 L10.96006,22.11526 L10.96006,20.5632 Z M12.51212,17.72271 L10.96006,17.72271 L10.96006,16.17065 L12.51212,16.17065 L12.51212,17.72271 Z M16.39357,22.29748 C14.70711,22.29748 13.86323,20.79388 13.86323,17.78603 C13.86323,16.29665 14.07323,15.19043 14.49388,14.46674 C14.93585,13.70169 15.55874,13.31852 16.36191,13.31852 C18.04449,13.31852 18.88579,14.82083 18.88579,17.82415 C18.88579,19.30061 18.67773,20.41329 18.26096,21.16218 C17.83579,21.91947 17.21354,22.29812 16.39358,22.29748 L16.39357,22.29748 Z M16.38582,21.13053 C16.86527,21.13053 17.19157,20.79775 17.3641,20.1335 C17.50302,19.60818 17.57216,18.81276 17.57216,17.74855 C17.57216,16.73086 17.49462,15.94837 17.3389,15.40107 C17.16185,14.7911 16.83813,14.48612 16.36708,14.48612 C15.89603,14.48612 15.56779,14.80984 15.38299,15.45794 C15.24407,15.95031 15.17493,16.74702 15.17493,17.84936 C15.17493,18.9769 15.25893,19.78653 15.42758,20.2789 C15.6253,20.84687 15.94515,21.13053 16.38583,21.13053 L16.38582,21.13053 Z M22.48809,22.29748 C20.80163,22.29748 19.95775,20.79388 19.95775,17.78603 C19.95775,16.29665 20.1684,15.19043 20.58904,14.46674 C21.03101,13.70169 21.6539,13.31852 22.45707,13.31852 C24.13965,13.31852 24.98095,14.82083 24.98095,17.82415 C24.98095,19.30061 24.77289,20.41329 24.35612,21.16218 C23.9316,21.91947 23.3087,22.29812 22.48809,22.29748 L22.48809,22.29748 Z M22.48098,21.13053 C22.96107,21.13053 23.28673,20.79775 23.45926,20.1335 C23.59818,19.60818 23.66732,18.81276 23.66732,17.74855 C23.66732,16.73086 23.58978,15.94837 23.43406,15.40107 C23.25701,14.7911 22.93329,14.48612 22.46224,14.48612 C21.99119,14.48612 21.66295,14.80984 21.47815,15.45794 C21.33923,15.95031 21.27009,16.74702 21.27009,17.84936 C21.27009,18.9769 21.35409,19.78653 21.52274,20.2789 C21.72046,20.84687 22.04031,21.13053 22.48099,21.13053 L22.48098,21.13053 Z M4.52308,25.84615 L25.2,25.84615 L25.2,27.13846 L4.52308,27.13846 L4.52308,25.84615 Z M4.52308,29.07692 L25.2,29.07692 L25.2,30.36923 L4.52308,30.36923 L4.52308,29.07692 Z M29.72308,1.29231 L29.72308,7.75385 L0,7.75385 L0,1.29231 C0,0.58154 0.58154,-4.4408921e-16 1.29231,-4.4408921e-16 L28.43077,-4.4408921e-16 C29.14154,-4.4408921e-16 29.72308,0.58154 29.72308,1.29231 Z M27.78462,1.93846 L1.93847,1.93846 L1.93847,5.81538 L27.78462,5.81538 L27.78462,1.93846 Z M27.78462,9.04615 L29.72308,9.04615 L29.72308,34.8923 C29.72308,35.60307 29.14154,36.18461 28.43077,36.18461 L1.29231,36.18461 C0.58154,36.18461 0,35.60307 0,34.8923 L0,9.04615 L1.93846,9.04615 L1.93846,34.24615 L27.78461,34.24615 L27.78462,9.04615 Z"></path>
</svg>